<?xml version="1.0" encoding="UTF-8" standalone="no"?>
<svg width="16px" height="16px" viewBox="0 0 16 16" version="1.1" xmlns="http://www.w3.org/2000/svg" xmlns:xlink="http://www.w3.org/1999/xlink" xmlns:sketch="http://www.bohemiancoding.com/sketch/ns">
    <!-- Generator: Sketch 3.3.3 (12081) - http://www.bohemiancoding.com/sketch -->
    <title>favicon</title>
    <desc>Created with Sketch.</desc>
    <defs></defs>
    <g id="Page-2" stroke="none" stroke-width="1" fill="none" fill-rule="evenodd" sketch:type="MSPage">
        <g id="favicon" sketch:type="MSArtboardGroup">
            <path d="M1,1 L1,15 L15,15 L15,1 L1,1 Z M0,0 L16,0 L16,16 L0,16 L0,0 L0,0 Z" id="Shape" fill="#7DB4B5" sketch:type="MSShapeGroup"></path>
            <rect id="Rectangle-2" fill-opacity="0.32" fill="#7DB4B5" sketch:type="MSShapeGroup" x="3" y="0" width="13" height="4"></rect>
            <rect id="Rectangle-2-Copy" fill-opacity="0.32" fill="#7DB4B5" sketch:type="MSShapeGroup" x="0" y="3" width="4" height="13"></rect>
            <path d="M0.533333333,3.5 L15.4666667,3.5" id="Line" stroke="#7DB4B5" sketch:type="MSShapeGroup"></path>
            <path d="M3.5,0.53968254 L3.5,15.6507937" id="Line-Copy" stroke="#7DB4B5" sketch:type="MSShapeGroup"></path>
            <path d="M3.47843137,4.99206349 L3.47843137,4.99206349 C2.66191627,4.99206349 2,4.32226726 2,3.49603175 C2,2.66979623 2.66191627,2 3.47843137,2 C4.29494647,2 4.95686275,2.66979623 4.95686275,3.49603175 C4.95686275,4.32226726 4.29494647,4.99206349 3.47843137,4.99206349 L3.47843137,4.99206349 Z" id="Shape" fill="#7DB4B5" sketch:type="MSShapeGroup"></path>
            <path d="M3.5,4 L3.5,4 C3.22385763,4 3,3.77614237 3,3.5 C3,3.22385763 3.22385763,3 3.5,3 C3.77614237,3 4,3.22385763 4,3.5 C4,3.77614237 3.77614237,4 3.5,4 L3.5,4 Z" id="Shape-Copy" fill="#FFFFFF" sketch:type="MSShapeGroup"></path>
            <path d="M7.15685058,13.2486986 L7.15685058,5.93089544 L8.32808627,5.73730276 L8.32808627,8.24432793 C9.14582276,8.12251232 11.8431494,7.37300072 11.8431494,10.4168849 L11.8431494,13.2626972 L10.6719137,13.2626972 L10.6719137,10.6007979 C10.6719136,8.49177502 8.84198976,9.1519923 8.32808627,9.22197095 L8.32808627,13.2486986 L7.15685058,13.2486986 Z" id="h-copy-2" fill="#7DB4B5" sketch:type="MSShapeGroup"></path>
        </g>
    </g>
</svg>