<?xml version="1.0" encoding="UTF-8" standalone="no"?>
<svg width="128px" height="128px" viewBox="0 0 128 128" version="1.1" xmlns="http://www.w3.org/2000/svg" xmlns:xlink="http://www.w3.org/1999/xlink" xmlns:sketch="http://www.bohemiancoding.com/sketch/ns">
    <!-- Generator: Sketch 3.3.3 (12081) - http://www.bohemiancoding.com/sketch -->
    <title>logo-128</title>
    <desc>Created with Sketch.</desc>
    <defs></defs>
    <g id="Page-2" stroke="none" stroke-width="1" fill="none" fill-rule="evenodd" sketch:type="MSPage">
        <g id="logo-128" sketch:type="MSArtboardGroup">
            <path d="M8,8 L8,120 L120,120 L120,8 L8,8 Z M0,0 L128,0 L128,128 L0,128 L0,0 L0,0 Z" id="Shape" fill="#7DB4B5" sketch:type="MSShapeGroup"></path>
            <rect id="Rectangle-2" fill-opacity="0.32" fill="#7DB4B5" sketch:type="MSShapeGroup" x="24" y="0" width="104" height="32"></rect>
            <rect id="Rectangle-2-Copy" fill-opacity="0.32" fill="#7DB4B5" sketch:type="MSShapeGroup" x="0" y="24" width="32" height="104"></rect>
            <path d="M0,28 L128,28" id="Line" stroke="#7DB4B5" stroke-width="8" sketch:type="MSShapeGroup"></path>
            <path d="M28,0 L28,128" id="Line-Copy" stroke="#7DB4B5" stroke-width="8" sketch:type="MSShapeGroup"></path>
            <path d="M28,40 L28,40 C21.372583,40 16,34.627417 16,28 C16,21.372583 21.372583,16 28,16 C34.627417,16 40,21.372583 40,28 C40,34.627417 34.627417,40 28,40 L28,40 Z" id="Path" fill="#7DB4B5" sketch:type="MSShapeGroup"></path>
            <path d="M28,32 L28,32 C30.209139,32 32,30.209139 32,28 C32,25.790861 30.209139,24 28,24 C25.790861,24 24,25.790861 24,28 C24,30.209139 25.790861,32 28,32 L28,32 Z" id="Path" fill="#FFFFFF" sketch:type="MSShapeGroup"></path>
            <path d="M56.084,108 L56.084,46.1904531 L65.9767979,44.5552799 L65.9767979,65.7307728 C72.0786272,65.122826 96,60.0112215 96,83.9629525 L96,107.999998 L86.1072021,107.999998 L86.1072021,85.516367 C86.1072026,68.2778434 66.6308704,73.7703733 65.9767979,73.9883975 L65.9767979,108 L56.084,108 Z" id="h-copy" fill="#7DB4B5" sketch:type="MSShapeGroup"></path>
        </g>
    </g>
</svg>